# xmcd
#
# Track frame offsets:
#	150
#	13925
#	24436
#	44230
#	59100
#	72982
#	88272
#	101099
#	116808
#	129868
#	141715
#	154124
#	162626
#	175768
#	188025
#	204179
#	215724
#	228099
#	241549
#	254256
#	273876
#	285963
#	298002
#	310886
#	325280
#
# Disc length: 4561
#
# Revision: 1
# Processed by: cddbd v1.5.1PL0 Copyright (c) Steve Scherf et al.
# Submitted via: CDex 1.40Release
# Normalized: r0:TDELIM( - )
#
DISCID=7b11cf19
DTITLE=Various Artist - Sampler
DYEAR=1900
DGENRE=Country
TTITLE0=Kingston Trio - Tom Dooley
TTITLE1=Dean Martin - King of the road
TTITLE2=Marty Robbins - El Paso
TTITLE3=Billie Jo Spears - (Hey Won't You Play) Another...
TTITLE4=George Jones - A Good  Year For The Roses
TTITLE5=Don WIllieams - I Recall A Gypsy Woman
TTITLE6=Susan Raye - L.A.International Airport
TTITLE7=Billie Jo Spears - Sing Me An Old Fashioned Song
TTITLE8=Marty Ronnins - Devil Woman
TTITLE9=Tennessee Ernie Ford - Sixteen Tons
TTITLE10=Billie Jo Spears - What I've Got In Mind
TTITLE11=Susan Raye - (I've Got A) Happy Heart
TTITLE12=Lynn Anderson - Rose GArden
TTITLE13=George Jones and Tammy Wynette - Two Story House
TTITLE14=Billie Jo Spears - Blanket On The Ground
TTITLE15=Johnny Cash - In Them Old Cottonfields Back Home
TTITLE16=Dean Martin - Little Ol' Winedrinker Me
TTITLE17=George Jones and TAmmy Wynette - We're Gonna Hold On
TTITLE18=Don Williams - Some Broken Hearts Never Mend
TTITLE19=Kenny Rogers - Coward Of The County
TTITLE20=Tammy Wynette - Stand By Your Man
TTITLE21=Charlie Rich - The Most Beautiful Girl
TTITLE22=Kenny Rogers - Ruby, Don't Take Your Love To Town
TTITLE23=John Denver - Take Me Home, Country Roads
TTITLE24=Johnny CAsh - (Ghost)Riders In The Sky
EXTD=ID3G: 2
EXTT0=
EXTT1=
EXTT2=
EXTT3=
EXTT4=
EXTT5=
EXTT6=
EXTT7=
EXTT8=
EXTT9=
EXTT10=
EXTT11=
EXTT12=
EXTT13=
EXTT14=
EXTT15=
EXTT16=
EXTT17=
EXTT18=
EXTT19=
EXTT20=
EXTT21=
EXTT22=
EXTT23=
EXTT24=
PLAYORDER=
